<?xml version="1.0"?>
<svg xmlns="http://www.w3.org/2000/svg" viewBox="0 0 64 64" width="512" height="512"><g id="Flat"><path d="M11,61H53a8,8,0,0,0,8-8V11H3V53A8,8,0,0,0,11,61Z" style="fill:#e6e6e6"/><path d="M3,11H61a8,8,0,0,0-8-8H11a8,8,0,0,0-8,8Z" style="fill:#b3b3b3"/><path d="M46,8a1,1,0,0,1-.38-.08,1.032,1.032,0,0,1-.33-.21A1.052,1.052,0,0,1,45,7a1,1,0,0,1,.08-.38,1.155,1.155,0,0,1,.21-.33,1.032,1.032,0,0,1,.33-.21,1,1,0,0,1,1.09.21A1,1,0,0,1,46,8Z" style="fill:#ff6536"/><path d="M50,8a1,1,0,0,1-.38-.08A.96.96,0,0,1,49,7a1,1,0,0,1,.08-.38.933.933,0,0,1,.21-.33,1.032,1.032,0,0,1,.33-.21,1,1,0,0,1,1.09.21,1.032,1.032,0,0,1,.21.33A1,1,0,0,1,51,7a1.052,1.052,0,0,1-.29.71A1.033,1.033,0,0,1,50,8Z" style="fill:#fdb62f"/><path d="M54,8a1,1,0,0,1-.71-1.71,1.047,1.047,0,0,1,1.42,0,1.576,1.576,0,0,1,.12.15.757.757,0,0,1,.09.18.6.6,0,0,1,.06.19A1.225,1.225,0,0,1,55,7a.99.99,0,0,1-1,1Z" style="fill:#02998a"/><path d="M32,58c-5.607,0-10-9.664-10-22s4.393-22,10-22,10,9.664,10,22S37.607,58,32,58Zm0-42c-3.863,0-8,8.037-8,20s4.137,20,8,20,8-8.037,8-20S35.863,16,32,16Z" style="fill:#ff6536"/><circle cx="27" cy="19" r="3" style="fill:#ffc1af"/><path d="M43.882,50.061c-4.614,0-10.728-1.848-16.882-5.4h0C16.316,38.492,10.144,29.856,12.947,25S26.316,21.171,37,27.339,53.856,42.144,51.053,47C49.864,49.059,47.279,50.061,43.882,50.061ZM28,42.928C38.36,48.91,47.389,49.346,49.32,46S46.36,35.054,36,29.072,16.61,22.654,14.68,26,17.64,36.946,28,42.928Z" style="fill:#fdb62f"/><circle cx="49.222" cy="40.17" r="3" style="fill:#f5cf68"/><path d="M20.118,50.061c-3.4,0-5.982-1-7.171-3.061C10.144,42.144,16.316,33.508,27,27.339h0C37.684,21.171,48.25,20.144,51.053,25S47.684,38.492,37,44.661C30.847,48.213,24.732,50.061,20.118,50.061ZM28,29.072C17.64,35.054,12.748,42.654,14.68,46S25.641,48.911,36,42.928,51.252,29.346,49.32,26,38.36,23.09,28,29.072Z" style="fill:#02998a"/><circle cx="19.778" cy="48.83" r="3" style="fill:#83beb9"/><circle cx="32" cy="36" r="5" style="fill:#6cbbc7"/></g></svg>
