<?xml version="1.0"?>
<svg xmlns="http://www.w3.org/2000/svg" viewBox="0 0 512 512" width="512" height="512"><g id="Fill_out_line" data-name="Fill out line"><path d="M128,384a23.993,23.993,0,0,0,40,17.87988V456H24V312H78.12012a24,24,0,1,0,35.75976,0H168v54.12012A23.993,23.993,0,0,0,128,384Z" style="fill:#396795"/><path d="M208,240a23.993,23.993,0,0,1-40,17.87988V312H113.87988a24,24,0,1,1-35.75976,0H24V168H78.12012a24,24,0,1,1,35.75976,0H168v54.12012A23.993,23.993,0,0,1,208,240Z" style="fill:#eedc9a"/><path d="M272,384a23.993,23.993,0,0,0,40,17.87988V456H168V401.87988a24,24,0,1,1,0-35.75976V312h54.12012a24,24,0,1,1,35.75976,0H312v54.12012A23.993,23.993,0,0,0,272,384Z" style="fill:#8acce7"/><path d="M456,168V312H401.87988a24,24,0,1,0-35.75976,0H312V257.87988a24,24,0,1,0,0-35.75976V168h54.12012a24,24,0,1,0,35.75976,0Z" style="fill:#8acce7"/><path d="M456,168H401.87988a24,24,0,1,1-35.75976,0H312V113.87988a24,24,0,1,0,0-35.75976V24H456Z" style="fill:#396795"/><path d="M352,240a23.993,23.993,0,0,1-40,17.87988V312H257.87988a24,24,0,1,0-35.75976,0H168V257.87988a24,24,0,1,0,0-35.75976V168h54.12012a24,24,0,1,1,35.75976,0H312v54.12012A23.993,23.993,0,0,1,352,240Z" style="fill:#e44042"/><path d="M208,96a23.993,23.993,0,0,1-40,17.87988V168H113.87988a24,24,0,1,0-35.75976,0H24V24H168V78.12012A23.993,23.993,0,0,1,208,96Z" style="fill:#e44042"/><path d="M352,96a23.993,23.993,0,0,1-40,17.87988V168H257.87988a24,24,0,1,0-35.75976,0H168V113.87988a24,24,0,1,0,0-35.75976V24H312V78.12012A23.993,23.993,0,0,1,352,96Z" style="fill:#349966"/><path d="M384,472l-42.28027-42.28a1.88006,1.88006,0,0,1,.01025.24,23.97486,23.97486,0,1,1-23.98-23.98,1.92856,1.92856,0,0,1,.24023.01L280,368l42.28027-42.28a1.92856,1.92856,0,0,1-.24023.01,23.975,23.975,0,1,1,23.98-23.98,1.88006,1.88006,0,0,1-.01025.24L384,264,488,368Z" style="fill:#eebe33"/><path d="M384,480a7.97772,7.97772,0,0,1-5.65723-2.34277l-32.47363-32.47461a31.973,31.973,0,1,1-43.33984-43.33985l-28.18653-28.18554a8.00122,8.00122,0,0,1,0-11.31446l32.47461-32.47363a31.973,31.973,0,1,1,43.33985-43.33984l28.18554-28.18653a8.003,8.003,0,0,1,11.31446,0l104,104a8.00122,8.00122,0,0,1,0,11.31446l-104,104A7.97772,7.97772,0,0,1,384,480Zm-42.28223-58.28027a7.99927,7.99927,0,0,1,5.65918,2.34277L384,460.68652,476.68652,368,384,275.31348l-32.333,32.334a8.00093,8.00093,0,0,1-13.64844-6.04,15.97932,15.97932,0,1,0-16.13964,16.12207A8.00058,8.00058,0,0,1,327.9375,331.377L291.31348,368l32.334,32.333a8.00093,8.00093,0,0,1-6.04,13.64844,15.97932,15.97932,0,1,0,16.12207,16.13964,8,8,0,0,1,7.98828-8.40136Zm-7.92968,9.04589.001.00684Zm-.00489-.04.00489.03613Zm-.001-.01075.001.00684Zm-16.72657-16.77929h0Zm-.01464-.002.00683.001Zm-.01954-.00195.01368.001Zm4.21192-96.14258-.0166.002Zm.0166-.00293-.01562.002Zm.0332-.0039-.03222.0039Zm.01465-.002-.01367.002Zm.01172-.001h0Zm16.75586-16.73438v0Zm.002-.01172v0Z"/><path d="M456,16H24a7.9979,7.9979,0,0,0-8,8V456a7.9979,7.9979,0,0,0,8,8H280V448H176V401.87988a8.00567,8.00567,0,0,0-13.34009-5.96,16,16,0,1,1,0-23.83984A8.00567,8.00567,0,0,0,176,366.12012V320h46.12012a8.00567,8.00567,0,0,0,5.96-13.34009,16,16,0,1,1,23.83984,0A8.00567,8.00567,0,0,0,257.87988,320H280V304h-9.00977A32.43748,32.43748,0,0,0,272,296a32,32,0,0,0-64,0,32.42623,32.42623,0,0,0,1.01,8H176V270.99a32.42623,32.42623,0,0,0,8,1.01,32,32,0,0,0,0-64,32.42623,32.42623,0,0,0-8,1.01V176h46.12012a8.00567,8.00567,0,0,0,5.96-13.34009,16,16,0,1,1,23.83984,0A8.00567,8.00567,0,0,0,257.87988,176H304v46.12012a8.0056,8.0056,0,0,0,13.33984,5.96,15.99491,15.99491,0,0,1,22.59034,22.57983l11.90966,10.67993A31.99537,31.99537,0,0,0,328,208a32.42617,32.42617,0,0,0-8,1.01V176h33.00977A32.436,32.436,0,0,0,352,184a32,32,0,0,0,64,0,32.436,32.436,0,0,0-1.00977-8H448V296h16V24A7.9979,7.9979,0,0,0,456,16ZM160,353.01a32.42623,32.42623,0,0,0-8-1.01,32,32,0,0,0,0,64,32.42623,32.42623,0,0,0,8-1.01V448H32V320H65.01A32.42473,32.42473,0,0,0,64,328a32,32,0,0,0,64,0,32.42473,32.42473,0,0,0-1.01-8H160ZM184,224a16,16,0,1,1-10.65991,27.91992A8.00567,8.00567,0,0,0,160,257.87988V304H113.87988a8.00553,8.00553,0,0,0-5.96,13.33984,16,16,0,1,1-23.83984,0A8.00553,8.00553,0,0,0,78.12012,304H32V176H78.12012a8.00567,8.00567,0,0,0,5.96-13.34009,16,16,0,1,1,23.83984,0A8.00567,8.00567,0,0,0,113.87988,176H160v46.12012a8.00567,8.00567,0,0,0,13.34009,5.96A15.94213,15.94213,0,0,1,184,224ZM173.34009,107.91992A8.00567,8.00567,0,0,0,160,113.87988V160H126.99a32.42623,32.42623,0,0,0,1.01-8,32,32,0,0,0-64,0,32.42623,32.42623,0,0,0,1.01,8H32V32H160V78.12012a8.00567,8.00567,0,0,0,13.34009,5.96,16,16,0,1,1,0,23.83984Zm143.99975,0A8.0056,8.0056,0,0,0,304,113.87988V160H270.99023A32.43748,32.43748,0,0,0,272,152a32,32,0,0,0-64,0,32.42623,32.42623,0,0,0,1.01,8H176V126.99a32.42623,32.42623,0,0,0,8,1.01,32,32,0,0,0,0-64,32.42623,32.42623,0,0,0-8,1.01V32H304V78.12012a8.0056,8.0056,0,0,0,13.33984,5.96,16,16,0,1,1,0,23.83984ZM448,160H401.87988a8.00553,8.00553,0,0,0-5.96,13.33984,16,16,0,1,1-23.83984,0A8.00553,8.00553,0,0,0,366.12012,160H320V126.99a32.42617,32.42617,0,0,0,8,1.01,32,32,0,0,0,0-64,32.42617,32.42617,0,0,0-8,1.01V32H448Z"/></g></svg>
