<svg id="Layer_1" enable-background="new 0 0 512 512" height="512" viewBox="0 0 512 512" width="512" xmlns="http://www.w3.org/2000/svg"><path d="m498.111 464.937c-.311-.972-.719-1.909-1.22-2.797 0 0-229.175-406.574-230.013-407.456-10.133-32.398-40.15-54.684-74.42-54.684-24.007 0-46.313 10.803-61.198 29.64-5.136 6.5-4.031 15.933 2.469 21.069 6.499 5.136 15.933 4.032 21.069-2.469 9.16-11.592 22.886-18.24 37.66-18.24 12.479 0 24.04 4.805 32.696 12.856-2.37.177-4.734.47-7.079.909-17.461 3.262-33.054 13.659-42.779 28.523-4.536 6.932-2.593 16.229 4.339 20.764 2.533 1.658 5.381 2.45 8.198 2.45 4.892 0 9.688-2.39 12.566-6.789 5.271-8.056 13.722-13.691 23.186-15.459 3.551-.663 7.179-.764 10.741-.337l-219.218 389.222c-.5.888-.909 1.826-1.219 2.797-1.813 5.677-.776 11.776 2.844 16.733 5.006 6.854 14.401 11.327 32.426 15.438 13.255 3.022 30.912 5.698 52.481 7.952 42.839 4.476 97.658 6.941 154.36 6.941s111.521-2.465 154.359-6.941c21.569-2.253 39.226-4.929 52.481-7.952 18.025-4.111 27.42-8.583 32.426-15.438 3.621-4.957 4.658-11.056 2.845-16.732zm-159.699 15.233c-14.268.654-29.073 1.139-44.18 1.445l114.633-114.633 15.286 27.141c.001-.001-85.266 85.388-85.739 86.047zm-284.527-12.766 263.265-263.265 15.286 27.141-242.275 242.274c-17.161-2.148-28.657-4.317-36.276-6.15zm93.491-178.975c1.01-.612 139.202-138.571 139.202-138.571l15.286 27.141-210.009 210.009zm200.345-30.01 15.286 27.141-193.223 193.224c-.371.371-.718.757-1.042 1.156-13.965-.684-27.375-1.532-40.008-2.533zm30.573 54.281 15.286 27.141s-141.42 141.533-141.873 142.153c-14.216-.032-28.323-.224-42.142-.565zm-107.002-189.982-70.022 70.022 54.73-97.174zm129.921 353.112c-5.766.561-11.752 1.086-17.917 1.574l56.142-56.142 25.033 44.446c-8.867 2.654-27.08 6.601-63.258 10.122z"/></svg>