<?xml version="1.0"?>
<svg xmlns="http://www.w3.org/2000/svg" viewBox="0 0 64 64" width="512" height="512"><g id="Cloud-Folder-Home-Man-Work"><path d="M5.19,31H6a3.009,3.009,0,0,1,3,3v.4a2.97,2.97,0,0,1,1.47-.4H14V31.31A7,7,0,0,1,10,25v-.71L4.51,29.26A1,1,0,0,0,5.19,31Z"/><path d="M6.57,46.11A2.972,2.972,0,0,0,9,49.95V46H6.61Z"/><path d="M19,32H17a6.634,6.634,0,0,1-1-.08V35a.985.985,0,0,1-.81.96A3.121,3.121,0,0,0,18,38a3.121,3.121,0,0,0,2.81-2.04A.985.985,0,0,1,20,35V31.92A6.634,6.634,0,0,1,19,32Z"/><path d="M25.53,36H22.89a4.989,4.989,0,0,1-9.78,0H10.47a1.021,1.021,0,0,0-.96.7L7.23,44h3.99l.81-3.24a1,1,0,0,1,1.94.48L13.28,44h9.44l-.69-2.76a1,1,0,1,1,1.94-.48L24.78,44h3.99l-2.28-7.3A1.021,1.021,0,0,0,25.53,36Z"/><path d="M6,56a2,2,0,0,0,0,4H7.85l13.34-4Z"/><path d="M11,54H25V46H11Zm7-6a2,2,0,1,1-2,2A2,2,0,0,1,18,48Z"/><path d="M30,56H28.15L14.81,60H30a2,2,0,0,0,0-4Z"/><path d="M28.98,48.78a3,3,0,0,0,.45-2.67L29.39,46H27v3.95A3.01,3.01,0,0,0,28.98,48.78Z"/><path d="M17,30h2a5,5,0,0,0,5-5v-.82a6.712,6.712,0,0,0-2.75-2.88A9.3,9.3,0,0,1,15.02,24a1.016,1.016,0,0,1-1.01-.84A21.429,21.429,0,0,1,12,24.58V25A5,5,0,0,0,17,30Z"/><path d="M15.41,20.1a1,1,0,0,1,.59.91v.87a6.408,6.408,0,0,0,4.17-2.44.993.993,0,0,1,1.28-.33,12.194,12.194,0,0,1,2.53,1.74A4.987,4.987,0,0,0,19,16H17a5,5,0,0,0-5,5v1.17a28.388,28.388,0,0,0,2.33-1.9A1.019,1.019,0,0,1,15.41,20.1Z"/><path d="M56.91,26.92A5.5,5.5,0,0,1,56,27H51a1,1,0,0,1,0-2h5a4,4,0,0,0,.75-7.92.988.988,0,0,1-.8-.87c-.29-2.45-1.99-4.93-4.65-4.93a6.047,6.047,0,0,0-.61.04.983.983,0,0,1-1.03-.6,7.828,7.828,0,0,0-14.87,1.63,8.672,8.672,0,0,0,.04,3.88,1,1,0,0,1-.54,1.17A3.99,3.99,0,0,0,36,25h3a1,1,0,0,1,0,2H36a5.987,5.987,0,0,1-3.27-11.01,11.2,11.2,0,0,1,.1-4.02,9.7,9.7,0,0,1,2.36-4.72L32.67,4.96a1,1,0,0,0-1.34,0L21.02,14.3A7.006,7.006,0,0,1,26,21v4a7,7,0,0,1-4,6.31V34h3.53a3.007,3.007,0,0,1,2.86,2.1l2.94,9.41A4.981,4.981,0,0,1,27,51.97V54h3a4,4,0,0,1,4,4,3.906,3.906,0,0,1-.56,2H54a1,1,0,0,0,1-1V34a3.009,3.009,0,0,1,3-3h.81a1,1,0,0,0,.68-1.74ZM46,19a1,1,0,0,1,1.707-.707l3,3a1,1,0,0,1-1.414,1.414L48,21.414V31a1,1,0,0,1-2,0Zm-6.707,3.707a1,1,0,0,1,0-1.414l3-3A1,1,0,0,1,44,19V31a1,1,0,0,1-2,0V21.414l-1.293,1.293A1,1,0,0,1,39.293,22.707ZM53,48a2.074,2.074,0,0,1-2,2H37a2.074,2.074,0,0,1-2-2V38a2.074,2.074,0,0,1,2-2h6a1.033,1.033,0,0,1,.71.29L45.41,38H51a2.074,2.074,0,0,1,2,2Z"/><path d="M44.29,39.71,42.59,38H37v4H51V40H45A1.033,1.033,0,0,1,44.29,39.71Z"/><polygon points="37 47.95 51 48 51 44 37 44 37 47.95"/></g></svg>
